<mxfile host="app.diagrams.net" modified="2020-09-18T10:26:04.890Z" agent="5.0 (Macintosh; Intel Mac OS X 10_15_6) AppleWebKit/537.36 (KHTML, like Gecko) Chrome/85.0.4183.102 Safari/537.36" etag="ooEP5t9qyRTdUsS9eNqP" version="13.7.3" type="github">
  <diagram id="MbFEJcP5ajTNoAKJoYLW" name="Page-1">
    <mxGraphModel dx="3227" dy="1240" grid="1" gridSize="10" guides="1" tooltips="1" connect="1" arrows="1" fold="1" page="1" pageScale="1" pageWidth="850" pageHeight="1100" math="0" shadow="0">
      <root>
        <mxCell id="0" />
        <mxCell id="1" parent="0" />
        <mxCell id="LxjPk7rRYAv5r2RyMpvJ-83" value="" style="group" vertex="1" connectable="0" parent="1">
          <mxGeometry x="-450" y="220" width="1880" height="770" as="geometry" />
        </mxCell>
        <mxCell id="LxjPk7rRYAv5r2RyMpvJ-35" value="" style="group" vertex="1" connectable="0" parent="LxjPk7rRYAv5r2RyMpvJ-83">
          <mxGeometry x="50" width="1690" height="250" as="geometry" />
        </mxCell>
        <mxCell id="LxjPk7rRYAv5r2RyMpvJ-1" value="&lt;font style=&quot;font-size: 24px&quot;&gt;Track&lt;/font&gt;" style="rounded=1;whiteSpace=wrap;html=1;fillColor=#d5e8d4;strokeColor=#82b366;" vertex="1" parent="LxjPk7rRYAv5r2RyMpvJ-35">
          <mxGeometry x="790" y="190" width="120" height="60" as="geometry" />
        </mxCell>
        <mxCell id="LxjPk7rRYAv5r2RyMpvJ-7" value="&lt;span style=&quot;font-size: 20px&quot;&gt;track_duration&lt;/span&gt;" style="ellipse;whiteSpace=wrap;html=1;fontStyle=0;fillColor=#d5e8d4;strokeColor=#82b366;" vertex="1" parent="LxjPk7rRYAv5r2RyMpvJ-35">
          <mxGeometry x="510" width="160" height="50" as="geometry" />
        </mxCell>
        <mxCell id="LxjPk7rRYAv5r2RyMpvJ-10" value="&lt;font style=&quot;font-size: 20px&quot;&gt;album&lt;/font&gt;" style="ellipse;whiteSpace=wrap;html=1;fontStyle=0;fillColor=#d5e8d4;strokeColor=#82b366;" vertex="1" parent="LxjPk7rRYAv5r2RyMpvJ-35">
          <mxGeometry x="340" width="160" height="50" as="geometry" />
        </mxCell>
        <mxCell id="LxjPk7rRYAv5r2RyMpvJ-11" value="&lt;font style=&quot;font-size: 20px&quot;&gt;artist&lt;/font&gt;" style="ellipse;whiteSpace=wrap;html=1;fontStyle=4;fillColor=#d5e8d4;strokeColor=#82b366;" vertex="1" parent="LxjPk7rRYAv5r2RyMpvJ-35">
          <mxGeometry x="170" width="160" height="50" as="geometry" />
        </mxCell>
        <mxCell id="LxjPk7rRYAv5r2RyMpvJ-12" value="&lt;font style=&quot;font-size: 20px&quot;&gt;name&lt;/font&gt;" style="ellipse;whiteSpace=wrap;html=1;fontStyle=4;fillColor=#d5e8d4;strokeColor=#82b366;" vertex="1" parent="LxjPk7rRYAv5r2RyMpvJ-35">
          <mxGeometry width="160" height="50" as="geometry" />
        </mxCell>
        <mxCell id="LxjPk7rRYAv5r2RyMpvJ-13" value="&lt;font style=&quot;font-size: 20px&quot;&gt;artist_playcount&lt;/font&gt;" style="ellipse;whiteSpace=wrap;html=1;fontStyle=0;fillColor=#d5e8d4;strokeColor=#82b366;" vertex="1" parent="LxjPk7rRYAv5r2RyMpvJ-35">
          <mxGeometry x="1190" width="160" height="50" as="geometry" />
        </mxCell>
        <mxCell id="LxjPk7rRYAv5r2RyMpvJ-14" value="&lt;font style=&quot;font-size: 20px&quot;&gt;artist_listeners&lt;/font&gt;" style="ellipse;whiteSpace=wrap;html=1;fontStyle=0;fillColor=#d5e8d4;strokeColor=#82b366;" vertex="1" parent="LxjPk7rRYAv5r2RyMpvJ-35">
          <mxGeometry x="1020" width="160" height="50" as="geometry" />
        </mxCell>
        <mxCell id="LxjPk7rRYAv5r2RyMpvJ-15" value="&lt;span style=&quot;font-size: 20px&quot;&gt;track_playcount&lt;/span&gt;" style="ellipse;whiteSpace=wrap;html=1;fontStyle=0;fillColor=#d5e8d4;strokeColor=#82b366;" vertex="1" parent="LxjPk7rRYAv5r2RyMpvJ-35">
          <mxGeometry x="850" width="160" height="50" as="geometry" />
        </mxCell>
        <mxCell id="LxjPk7rRYAv5r2RyMpvJ-16" value="&lt;font style=&quot;font-size: 20px&quot;&gt;track_listeners&lt;/font&gt;" style="ellipse;whiteSpace=wrap;html=1;fontStyle=0;fillColor=#d5e8d4;strokeColor=#82b366;" vertex="1" parent="LxjPk7rRYAv5r2RyMpvJ-35">
          <mxGeometry x="680" width="160" height="50" as="geometry" />
        </mxCell>
        <mxCell id="LxjPk7rRYAv5r2RyMpvJ-17" value="&lt;font style=&quot;font-size: 20px&quot;&gt;album_playcount&lt;/font&gt;" style="ellipse;whiteSpace=wrap;html=1;fontStyle=0;fillColor=#d5e8d4;strokeColor=#82b366;" vertex="1" parent="LxjPk7rRYAv5r2RyMpvJ-35">
          <mxGeometry x="1530" width="160" height="50" as="geometry" />
        </mxCell>
        <mxCell id="LxjPk7rRYAv5r2RyMpvJ-18" value="&lt;font style=&quot;font-size: 20px&quot;&gt;album_listeners&lt;/font&gt;" style="ellipse;whiteSpace=wrap;html=1;fontStyle=0;fillColor=#d5e8d4;strokeColor=#82b366;" vertex="1" parent="LxjPk7rRYAv5r2RyMpvJ-35">
          <mxGeometry x="1360" width="160" height="50" as="geometry" />
        </mxCell>
        <mxCell id="LxjPk7rRYAv5r2RyMpvJ-20" value="" style="endArrow=none;html=1;exitX=0.5;exitY=1;exitDx=0;exitDy=0;entryX=0.5;entryY=0;entryDx=0;entryDy=0;" edge="1" parent="LxjPk7rRYAv5r2RyMpvJ-35" source="LxjPk7rRYAv5r2RyMpvJ-12" target="LxjPk7rRYAv5r2RyMpvJ-1">
          <mxGeometry width="50" height="50" relative="1" as="geometry">
            <mxPoint x="860" y="320" as="sourcePoint" />
            <mxPoint x="910" y="270" as="targetPoint" />
          </mxGeometry>
        </mxCell>
        <mxCell id="LxjPk7rRYAv5r2RyMpvJ-26" value="" style="endArrow=none;html=1;exitX=0.5;exitY=1;exitDx=0;exitDy=0;" edge="1" parent="LxjPk7rRYAv5r2RyMpvJ-35" source="LxjPk7rRYAv5r2RyMpvJ-11">
          <mxGeometry width="50" height="50" relative="1" as="geometry">
            <mxPoint x="90" y="60" as="sourcePoint" />
            <mxPoint x="850" y="190" as="targetPoint" />
          </mxGeometry>
        </mxCell>
        <mxCell id="LxjPk7rRYAv5r2RyMpvJ-27" value="" style="endArrow=none;html=1;exitX=0.5;exitY=1;exitDx=0;exitDy=0;" edge="1" parent="LxjPk7rRYAv5r2RyMpvJ-35" source="LxjPk7rRYAv5r2RyMpvJ-10">
          <mxGeometry width="50" height="50" relative="1" as="geometry">
            <mxPoint x="415" y="70" as="sourcePoint" />
            <mxPoint x="850" y="190" as="targetPoint" />
          </mxGeometry>
        </mxCell>
        <mxCell id="LxjPk7rRYAv5r2RyMpvJ-28" value="" style="endArrow=none;html=1;exitX=0.5;exitY=1;exitDx=0;exitDy=0;entryX=0.5;entryY=0;entryDx=0;entryDy=0;" edge="1" parent="LxjPk7rRYAv5r2RyMpvJ-35" source="LxjPk7rRYAv5r2RyMpvJ-7" target="LxjPk7rRYAv5r2RyMpvJ-1">
          <mxGeometry width="50" height="50" relative="1" as="geometry">
            <mxPoint x="430" y="60" as="sourcePoint" />
            <mxPoint x="860" y="200" as="targetPoint" />
          </mxGeometry>
        </mxCell>
        <mxCell id="LxjPk7rRYAv5r2RyMpvJ-29" value="" style="endArrow=none;html=1;entryX=0.5;entryY=1;entryDx=0;entryDy=0;exitX=0.5;exitY=0;exitDx=0;exitDy=0;" edge="1" parent="LxjPk7rRYAv5r2RyMpvJ-35" source="LxjPk7rRYAv5r2RyMpvJ-1" target="LxjPk7rRYAv5r2RyMpvJ-16">
          <mxGeometry width="50" height="50" relative="1" as="geometry">
            <mxPoint x="790" y="250" as="sourcePoint" />
            <mxPoint x="840" y="200" as="targetPoint" />
          </mxGeometry>
        </mxCell>
        <mxCell id="LxjPk7rRYAv5r2RyMpvJ-30" value="" style="endArrow=none;html=1;entryX=0.5;entryY=1;entryDx=0;entryDy=0;exitX=0.5;exitY=0;exitDx=0;exitDy=0;" edge="1" parent="LxjPk7rRYAv5r2RyMpvJ-35" source="LxjPk7rRYAv5r2RyMpvJ-1" target="LxjPk7rRYAv5r2RyMpvJ-15">
          <mxGeometry width="50" height="50" relative="1" as="geometry">
            <mxPoint x="860" y="200" as="sourcePoint" />
            <mxPoint x="770" y="60" as="targetPoint" />
          </mxGeometry>
        </mxCell>
        <mxCell id="LxjPk7rRYAv5r2RyMpvJ-31" value="" style="endArrow=none;html=1;entryX=0.5;entryY=1;entryDx=0;entryDy=0;exitX=0.5;exitY=0;exitDx=0;exitDy=0;" edge="1" parent="LxjPk7rRYAv5r2RyMpvJ-35" source="LxjPk7rRYAv5r2RyMpvJ-1" target="LxjPk7rRYAv5r2RyMpvJ-14">
          <mxGeometry width="50" height="50" relative="1" as="geometry">
            <mxPoint x="860" y="200" as="sourcePoint" />
            <mxPoint x="940" y="60" as="targetPoint" />
          </mxGeometry>
        </mxCell>
        <mxCell id="LxjPk7rRYAv5r2RyMpvJ-32" value="" style="endArrow=none;html=1;entryX=0.5;entryY=1;entryDx=0;entryDy=0;exitX=0.5;exitY=0;exitDx=0;exitDy=0;" edge="1" parent="LxjPk7rRYAv5r2RyMpvJ-35" source="LxjPk7rRYAv5r2RyMpvJ-1" target="LxjPk7rRYAv5r2RyMpvJ-13">
          <mxGeometry width="50" height="50" relative="1" as="geometry">
            <mxPoint x="860" y="200" as="sourcePoint" />
            <mxPoint x="1110" y="60" as="targetPoint" />
          </mxGeometry>
        </mxCell>
        <mxCell id="LxjPk7rRYAv5r2RyMpvJ-33" value="" style="endArrow=none;html=1;exitX=0.5;exitY=0;exitDx=0;exitDy=0;entryX=0.5;entryY=1;entryDx=0;entryDy=0;" edge="1" parent="LxjPk7rRYAv5r2RyMpvJ-35" source="LxjPk7rRYAv5r2RyMpvJ-1" target="LxjPk7rRYAv5r2RyMpvJ-18">
          <mxGeometry width="50" height="50" relative="1" as="geometry">
            <mxPoint x="860" y="200" as="sourcePoint" />
            <mxPoint x="1370" y="120" as="targetPoint" />
          </mxGeometry>
        </mxCell>
        <mxCell id="LxjPk7rRYAv5r2RyMpvJ-34" value="" style="endArrow=none;html=1;entryX=0.5;entryY=1;entryDx=0;entryDy=0;" edge="1" parent="LxjPk7rRYAv5r2RyMpvJ-35" target="LxjPk7rRYAv5r2RyMpvJ-17">
          <mxGeometry width="50" height="50" relative="1" as="geometry">
            <mxPoint x="850" y="190" as="sourcePoint" />
            <mxPoint x="1449.9999999999995" y="60" as="targetPoint" />
          </mxGeometry>
        </mxCell>
        <mxCell id="LxjPk7rRYAv5r2RyMpvJ-69" value="" style="group" vertex="1" connectable="0" parent="LxjPk7rRYAv5r2RyMpvJ-83">
          <mxGeometry y="530" width="1880" height="240" as="geometry" />
        </mxCell>
        <mxCell id="LxjPk7rRYAv5r2RyMpvJ-37" value="&lt;font style=&quot;font-size: 20px&quot;&gt;playcount&lt;/font&gt;" style="ellipse;whiteSpace=wrap;html=1;fontStyle=0;fillColor=#d5e8d4;strokeColor=#82b366;" vertex="1" parent="LxjPk7rRYAv5r2RyMpvJ-69">
          <mxGeometry x="190" y="190" width="160" height="50" as="geometry" />
        </mxCell>
        <mxCell id="LxjPk7rRYAv5r2RyMpvJ-38" value="&lt;font style=&quot;font-size: 24px&quot;&gt;User&lt;/font&gt;" style="rounded=1;whiteSpace=wrap;html=1;fillColor=#d5e8d4;strokeColor=#82b366;" vertex="1" parent="LxjPk7rRYAv5r2RyMpvJ-69">
          <mxGeometry x="845" width="120" height="60" as="geometry" />
        </mxCell>
        <mxCell id="LxjPk7rRYAv5r2RyMpvJ-39" value="&lt;font style=&quot;font-size: 20px&quot;&gt;lastfm_username&lt;/font&gt;" style="ellipse;whiteSpace=wrap;html=1;fontStyle=4;fillColor=#d5e8d4;strokeColor=#82b366;" vertex="1" parent="LxjPk7rRYAv5r2RyMpvJ-69">
          <mxGeometry y="190" width="180" height="50" as="geometry" />
        </mxCell>
        <mxCell id="LxjPk7rRYAv5r2RyMpvJ-40" value="&lt;font style=&quot;font-size: 20px&quot;&gt;artists_count&lt;/font&gt;" style="ellipse;whiteSpace=wrap;html=1;fontStyle=0;fillColor=#d5e8d4;strokeColor=#82b366;" vertex="1" parent="LxjPk7rRYAv5r2RyMpvJ-69">
          <mxGeometry x="560" y="190" width="200" height="50" as="geometry" />
        </mxCell>
        <mxCell id="LxjPk7rRYAv5r2RyMpvJ-41" value="&lt;font style=&quot;font-size: 20px&quot;&gt;loved_tracks&lt;/font&gt;" style="ellipse;whiteSpace=wrap;html=1;fontStyle=0;fillColor=#d5e8d4;strokeColor=#82b366;" vertex="1" parent="LxjPk7rRYAv5r2RyMpvJ-69">
          <mxGeometry x="360" y="190" width="190" height="50" as="geometry" />
        </mxCell>
        <mxCell id="LxjPk7rRYAv5r2RyMpvJ-42" value="&lt;font style=&quot;font-size: 20px&quot;&gt;last_activity_unix_time&lt;/font&gt;" style="ellipse;whiteSpace=wrap;html=1;fontStyle=0;fillColor=#d5e8d4;strokeColor=#82b366;" vertex="1" parent="LxjPk7rRYAv5r2RyMpvJ-69">
          <mxGeometry x="1050" y="190" width="270" height="50" as="geometry" />
        </mxCell>
        <mxCell id="LxjPk7rRYAv5r2RyMpvJ-43" value="&lt;font style=&quot;font-size: 20px&quot;&gt;registration_unix_time&lt;/font&gt;" style="ellipse;whiteSpace=wrap;html=1;fontStyle=0;fillColor=#d5e8d4;strokeColor=#82b366;" vertex="1" parent="LxjPk7rRYAv5r2RyMpvJ-69">
          <mxGeometry x="770" y="190" width="270" height="50" as="geometry" />
        </mxCell>
        <mxCell id="LxjPk7rRYAv5r2RyMpvJ-44" value="&lt;font style=&quot;font-size: 20px&quot;&gt;activity_period_days&lt;/font&gt;" style="ellipse;whiteSpace=wrap;html=1;fontStyle=0;fillColor=#d5e8d4;strokeColor=#82b366;" vertex="1" parent="LxjPk7rRYAv5r2RyMpvJ-69">
          <mxGeometry x="1610" y="190" width="270" height="50" as="geometry" />
        </mxCell>
        <mxCell id="LxjPk7rRYAv5r2RyMpvJ-45" value="&lt;font style=&quot;font-size: 20px&quot;&gt;activity_period_unix_time&lt;/font&gt;" style="ellipse;whiteSpace=wrap;html=1;fontStyle=0;fillColor=#d5e8d4;strokeColor=#82b366;" vertex="1" parent="LxjPk7rRYAv5r2RyMpvJ-69">
          <mxGeometry x="1330" y="190" width="270" height="50" as="geometry" />
        </mxCell>
        <mxCell id="LxjPk7rRYAv5r2RyMpvJ-61" value="" style="endArrow=none;html=1;entryX=0.5;entryY=1;entryDx=0;entryDy=0;exitX=0.5;exitY=0;exitDx=0;exitDy=0;" edge="1" parent="LxjPk7rRYAv5r2RyMpvJ-69" source="LxjPk7rRYAv5r2RyMpvJ-39" target="LxjPk7rRYAv5r2RyMpvJ-38">
          <mxGeometry width="50" height="50" relative="1" as="geometry">
            <mxPoint x="690" y="110" as="sourcePoint" />
            <mxPoint x="740" y="60" as="targetPoint" />
          </mxGeometry>
        </mxCell>
        <mxCell id="LxjPk7rRYAv5r2RyMpvJ-62" value="" style="endArrow=none;html=1;entryX=0.5;entryY=1;entryDx=0;entryDy=0;exitX=0.5;exitY=0;exitDx=0;exitDy=0;" edge="1" parent="LxjPk7rRYAv5r2RyMpvJ-69" source="LxjPk7rRYAv5r2RyMpvJ-37" target="LxjPk7rRYAv5r2RyMpvJ-38">
          <mxGeometry width="50" height="50" relative="1" as="geometry">
            <mxPoint x="690" y="110" as="sourcePoint" />
            <mxPoint x="740" y="60" as="targetPoint" />
          </mxGeometry>
        </mxCell>
        <mxCell id="LxjPk7rRYAv5r2RyMpvJ-63" value="" style="endArrow=none;html=1;entryX=0.5;entryY=1;entryDx=0;entryDy=0;exitX=0.5;exitY=0;exitDx=0;exitDy=0;" edge="1" parent="LxjPk7rRYAv5r2RyMpvJ-69" source="LxjPk7rRYAv5r2RyMpvJ-41" target="LxjPk7rRYAv5r2RyMpvJ-38">
          <mxGeometry width="50" height="50" relative="1" as="geometry">
            <mxPoint x="690" y="110" as="sourcePoint" />
            <mxPoint x="740" y="60" as="targetPoint" />
          </mxGeometry>
        </mxCell>
        <mxCell id="LxjPk7rRYAv5r2RyMpvJ-64" value="" style="endArrow=none;html=1;entryX=0.5;entryY=1;entryDx=0;entryDy=0;exitX=0.5;exitY=0;exitDx=0;exitDy=0;" edge="1" parent="LxjPk7rRYAv5r2RyMpvJ-69" source="LxjPk7rRYAv5r2RyMpvJ-40" target="LxjPk7rRYAv5r2RyMpvJ-38">
          <mxGeometry width="50" height="50" relative="1" as="geometry">
            <mxPoint x="690" y="110" as="sourcePoint" />
            <mxPoint x="740" y="60" as="targetPoint" />
          </mxGeometry>
        </mxCell>
        <mxCell id="LxjPk7rRYAv5r2RyMpvJ-65" value="" style="endArrow=none;html=1;entryX=0.5;entryY=1;entryDx=0;entryDy=0;exitX=0.5;exitY=0;exitDx=0;exitDy=0;" edge="1" parent="LxjPk7rRYAv5r2RyMpvJ-69" source="LxjPk7rRYAv5r2RyMpvJ-43" target="LxjPk7rRYAv5r2RyMpvJ-38">
          <mxGeometry width="50" height="50" relative="1" as="geometry">
            <mxPoint x="690" y="110" as="sourcePoint" />
            <mxPoint x="740" y="60" as="targetPoint" />
          </mxGeometry>
        </mxCell>
        <mxCell id="LxjPk7rRYAv5r2RyMpvJ-66" value="" style="endArrow=none;html=1;exitX=0.5;exitY=0;exitDx=0;exitDy=0;entryX=0.5;entryY=1;entryDx=0;entryDy=0;" edge="1" parent="LxjPk7rRYAv5r2RyMpvJ-69" source="LxjPk7rRYAv5r2RyMpvJ-42" target="LxjPk7rRYAv5r2RyMpvJ-38">
          <mxGeometry width="50" height="50" relative="1" as="geometry">
            <mxPoint x="690" y="110" as="sourcePoint" />
            <mxPoint x="1190" y="50" as="targetPoint" />
          </mxGeometry>
        </mxCell>
        <mxCell id="LxjPk7rRYAv5r2RyMpvJ-67" value="" style="endArrow=none;html=1;entryX=0.5;entryY=0;entryDx=0;entryDy=0;exitX=0.5;exitY=1;exitDx=0;exitDy=0;" edge="1" parent="LxjPk7rRYAv5r2RyMpvJ-69" source="LxjPk7rRYAv5r2RyMpvJ-38" target="LxjPk7rRYAv5r2RyMpvJ-45">
          <mxGeometry width="50" height="50" relative="1" as="geometry">
            <mxPoint x="690" y="110" as="sourcePoint" />
            <mxPoint x="740" y="60" as="targetPoint" />
          </mxGeometry>
        </mxCell>
        <mxCell id="LxjPk7rRYAv5r2RyMpvJ-68" value="" style="endArrow=none;html=1;entryX=0.5;entryY=0;entryDx=0;entryDy=0;exitX=0.5;exitY=1;exitDx=0;exitDy=0;" edge="1" parent="LxjPk7rRYAv5r2RyMpvJ-69" source="LxjPk7rRYAv5r2RyMpvJ-38" target="LxjPk7rRYAv5r2RyMpvJ-44">
          <mxGeometry width="50" height="50" relative="1" as="geometry">
            <mxPoint x="1020" y="50" as="sourcePoint" />
            <mxPoint x="1474.9999999999995" y="200" as="targetPoint" />
          </mxGeometry>
        </mxCell>
        <mxCell id="LxjPk7rRYAv5r2RyMpvJ-70" value="&lt;font style=&quot;font-size: 24px&quot;&gt;Loved&lt;/font&gt;" style="rhombus;whiteSpace=wrap;html=1;fillColor=#ffe6cc;strokeColor=#d79b00;" vertex="1" parent="LxjPk7rRYAv5r2RyMpvJ-83">
          <mxGeometry x="590" y="350" width="190" height="80" as="geometry" />
        </mxCell>
        <mxCell id="LxjPk7rRYAv5r2RyMpvJ-71" value="&lt;font style=&quot;font-size: 24px&quot;&gt;Played&lt;/font&gt;" style="rhombus;whiteSpace=wrap;html=1;fillColor=#ffe6cc;strokeColor=#d79b00;" vertex="1" parent="LxjPk7rRYAv5r2RyMpvJ-83">
          <mxGeometry x="1020" y="350" width="190" height="80" as="geometry" />
        </mxCell>
        <mxCell id="LxjPk7rRYAv5r2RyMpvJ-72" value="" style="endArrow=none;html=1;exitX=0;exitY=0.5;exitDx=0;exitDy=0;entryX=1;entryY=1;entryDx=0;entryDy=0;" edge="1" parent="LxjPk7rRYAv5r2RyMpvJ-83" source="LxjPk7rRYAv5r2RyMpvJ-38" target="LxjPk7rRYAv5r2RyMpvJ-70">
          <mxGeometry width="50" height="50" relative="1" as="geometry">
            <mxPoint x="740" y="480" as="sourcePoint" />
            <mxPoint x="630" y="390" as="targetPoint" />
          </mxGeometry>
        </mxCell>
        <mxCell id="LxjPk7rRYAv5r2RyMpvJ-73" value="" style="endArrow=none;html=1;exitX=1;exitY=0;exitDx=0;exitDy=0;entryX=0;entryY=0.5;entryDx=0;entryDy=0;" edge="1" parent="LxjPk7rRYAv5r2RyMpvJ-83" source="LxjPk7rRYAv5r2RyMpvJ-70" target="LxjPk7rRYAv5r2RyMpvJ-1">
          <mxGeometry width="50" height="50" relative="1" as="geometry">
            <mxPoint x="855" y="570" as="sourcePoint" />
            <mxPoint x="640" y="400" as="targetPoint" />
          </mxGeometry>
        </mxCell>
        <mxCell id="LxjPk7rRYAv5r2RyMpvJ-74" value="" style="endArrow=none;html=1;entryX=0;entryY=1;entryDx=0;entryDy=0;exitX=1;exitY=0.5;exitDx=0;exitDy=0;" edge="1" parent="LxjPk7rRYAv5r2RyMpvJ-83" source="LxjPk7rRYAv5r2RyMpvJ-38" target="LxjPk7rRYAv5r2RyMpvJ-71">
          <mxGeometry width="50" height="50" relative="1" as="geometry">
            <mxPoint x="940" y="540" as="sourcePoint" />
            <mxPoint x="990" y="490" as="targetPoint" />
          </mxGeometry>
        </mxCell>
        <mxCell id="LxjPk7rRYAv5r2RyMpvJ-75" value="" style="endArrow=none;html=1;entryX=0;entryY=0;entryDx=0;entryDy=0;exitX=1;exitY=0.5;exitDx=0;exitDy=0;" edge="1" parent="LxjPk7rRYAv5r2RyMpvJ-83" source="LxjPk7rRYAv5r2RyMpvJ-1" target="LxjPk7rRYAv5r2RyMpvJ-71">
          <mxGeometry width="50" height="50" relative="1" as="geometry">
            <mxPoint x="975" y="570" as="sourcePoint" />
            <mxPoint x="1037.5" y="420" as="targetPoint" />
          </mxGeometry>
        </mxCell>
        <mxCell id="LxjPk7rRYAv5r2RyMpvJ-76" value="&lt;font style=&quot;font-size: 20px&quot;&gt;timestamp&lt;/font&gt;" style="ellipse;whiteSpace=wrap;html=1;fontStyle=0;fillColor=#ffe6cc;strokeColor=#d79b00;" vertex="1" parent="LxjPk7rRYAv5r2RyMpvJ-83">
          <mxGeometry x="610" y="250" width="150" height="50" as="geometry" />
        </mxCell>
        <mxCell id="LxjPk7rRYAv5r2RyMpvJ-80" value="" style="endArrow=none;html=1;entryX=0.5;entryY=1;entryDx=0;entryDy=0;exitX=0.5;exitY=0;exitDx=0;exitDy=0;" edge="1" parent="LxjPk7rRYAv5r2RyMpvJ-83" source="LxjPk7rRYAv5r2RyMpvJ-70" target="LxjPk7rRYAv5r2RyMpvJ-76">
          <mxGeometry width="50" height="50" relative="1" as="geometry">
            <mxPoint x="940" y="540" as="sourcePoint" />
            <mxPoint x="990" y="490" as="targetPoint" />
          </mxGeometry>
        </mxCell>
        <mxCell id="LxjPk7rRYAv5r2RyMpvJ-81" value="&lt;font style=&quot;font-size: 20px&quot;&gt;timestamp&lt;/font&gt;" style="ellipse;whiteSpace=wrap;html=1;fontStyle=0;fillColor=#ffe6cc;strokeColor=#d79b00;" vertex="1" parent="LxjPk7rRYAv5r2RyMpvJ-83">
          <mxGeometry x="1040" y="250" width="150" height="50" as="geometry" />
        </mxCell>
        <mxCell id="LxjPk7rRYAv5r2RyMpvJ-82" value="" style="endArrow=none;html=1;entryX=0.5;entryY=1;entryDx=0;entryDy=0;exitX=0.5;exitY=0;exitDx=0;exitDy=0;" edge="1" parent="LxjPk7rRYAv5r2RyMpvJ-83" source="LxjPk7rRYAv5r2RyMpvJ-71" target="LxjPk7rRYAv5r2RyMpvJ-81">
          <mxGeometry width="50" height="50" relative="1" as="geometry">
            <mxPoint x="940" y="540" as="sourcePoint" />
            <mxPoint x="990" y="490" as="targetPoint" />
          </mxGeometry>
        </mxCell>
      </root>
    </mxGraphModel>
  </diagram>
</mxfile>
